# xmcd CD database file
#
# Track frame offsets:
#	150
#	2265
#	20095
#	148575
#	165096
#	178285
#	201807
#	218990
#	220259
#	227701
#	314128
#	327642
#	337587
#
# Disc length: 4755 seconds
#
# Revision: 1
# Processed by: cddbd v1.5.2PL0 Copyright (c) Steve Scherf et al.
# Submitted via: CDex 1.70beta2
#
DISCID=b912910d
DTITLE=Diverse - Woodstock 40 - CD 3 - WAV
DYEAR=1969
DGENRE=Rock
TTITLE0=Chip Monck - Speech-We're In Pretty Good Shape (Live)
TTITLE1=Canned Heat - Going Up The Country (Live)
TTITLE2=Canned Heat - Woodstock Boogie (Live)
TTITLE3=Chip Monck - Speech-The Brown Acid Is Not Specifically Too Good (Live)
TTITLE4=Mountain - Blood Of The Sun (Live)
TTITLE5=Mountain - Theme For An Imaginery Western (Live)
TTITLE6=Mountain - For Yasgur's Farm (Live)
TTITLE7=Chip Monck - Speech-For Those Of You Who Have Partaken Of The Green Acid (Live)
TTITLE8=Jerry Garcia and Country Joe McDonald - Green Acid Advice (Live)
TTITLE9=Grateful Dead - Dark Star (Live)
TTITLE10=Creedence Clearwater Revival - Green River (Live)
TTITLE11=Creedence Clearwater Revival - Bad Moon Rising (Live)
TTITLE12=Creedence Clearwater Revival - I Put A Spell On You (Live)
EXTD=YEAR: 1969
EXTT0=
EXTT1=
EXTT2=
EXTT3=
EXTT4=
EXTT5=
EXTT6=
EXTT7=
EXTT8=
EXTT9=
EXTT10=
EXTT11=
EXTT12=
PLAYORDER=
